<svg width="1658" height="1732" viewBox="0 0 1658 1732" fill="none" xmlns="http://www.w3.org/2000/svg">
<g clip-path="url(#clip0_10_273)">
<path d="M837.661 0H852.533L853.244 0.13603C867.227 2.67589 881.743 2.96909 896.352 5.9374C962.401 19.3505 1018.98 62.4974 1056.99 117.17C1063.04 123.199 1065.26 136.469 1075.49 128.287C1087.27 118.87 1100.31 111.301 1114.57 106.354C1214.65 71.619 1302.58 133.149 1328.94 229.389C1438.97 205.774 1549.42 279.469 1572.18 388.7C1577.1 412.568 1577.93 437.096 1574.64 461.242C1573.84 466.919 1568.9 491.004 1570.23 494.266L1571.24 494.889C1577.33 498.653 1578.04 500.663 1583.41 504.779C1591.51 511.007 1600.95 517.309 1608 524.841C1631.84 550.321 1648.53 583.109 1655.93 617.154C1656.58 620.142 1657.31 625.234 1658 627.714V696.709C1655.42 709.112 1653.14 723.16 1649.18 735.258C1631.02 790.633 1597.97 840.518 1548.55 872.639C1533.75 882.254 1511.9 894.762 1495.09 899.549C1487.36 953.869 1468.19 993.211 1423.26 1026.84C1380.99 1057.87 1328.09 1070.77 1276.28 1062.69C1264.99 1061.01 1245.66 1056.39 1234.84 1051.65C1215.2 1099.35 1203.12 1159.51 1199.97 1210.89C1199.72 1215.08 1198.84 1228.43 1199.55 1231.28C1240.01 1215.17 1252.67 1226.56 1284.6 1251.09C1288.84 1248.65 1293.82 1246.18 1298.85 1247.66C1301.49 1248.43 1303.45 1250.38 1304.6 1252.84C1311 1266.6 1292.22 1334.1 1288.7 1352.16C1298.85 1360.69 1304.84 1368.03 1308.54 1380.97C1320.01 1420.99 1308.95 1475.98 1259.39 1479.63C1258.13 1479.72 1256.87 1479.8 1255.6 1479.87C1253.9 1491.25 1251.87 1502.56 1249.53 1513.82C1277.08 1501.66 1305.4 1507.88 1318.08 1537.16C1335.1 1576.48 1317.75 1647.44 1275.24 1664.45C1238.09 1679.3 1185.82 1660.73 1149.28 1649.54C1137.76 1645.98 1119.27 1640.47 1108.67 1636.11C1106.52 1635.23 1104.4 1634.28 1102.31 1633.27L1071.73 1656.02C1066.54 1659.94 1061.67 1665.06 1056.37 1668.65C1028.08 1687.8 998.26 1680.27 968.805 1670.27C963.137 1695.52 954.636 1713.94 931.898 1728.11C929.698 1729.45 927.465 1730.75 925.215 1732H849.505C816.73 1721.83 788.285 1708.13 756.819 1694.88C718.268 1678.64 672.739 1668.21 641.783 1638.29C632.629 1629.44 624.899 1619.24 618.864 1608.05C603.84 1580.09 584.231 1510.16 583.784 1478.75C565.891 1453.88 552.95 1412.58 558.39 1382.75C565.149 1345.7 559.622 1338.36 549.073 1302.81C531.342 1243.06 504.746 1193.15 467.941 1142.88C441.091 1175.42 401.866 1192.87 359.541 1192.34C323.016 1191.89 295.031 1174.33 270.526 1148.61C264.402 1151.22 258.421 1155.04 252.25 1157.74C206.64 1177.74 149.806 1165.24 116.239 1128.8C85.766 1095.72 72.3654 1053.06 74.5898 1008.65C75.2845 994.784 77.9597 981.32 78.5531 967.544C75.3354 964.381 71.7005 961.573 68.2001 958.748C33.062 930.409 9.98945 887.117 2.46864 842.939C1.56151 837.611 1.03982 832.232 0 826.883V784.972C3.467 771.462 2.67985 760.597 8.24812 742.883C32.1093 666.971 70.4722 623.401 140.092 586.714C127.482 548.628 127.236 486.804 134.981 447.596C147.006 386.714 182.976 330.862 234.674 295.895C272.332 270.424 314.924 253.888 361.134 255.563C371.989 255.956 383.848 258.559 394.552 260.66C398.169 245.177 401.898 231.241 409.169 217.005C426.751 183.291 457.058 157.979 493.371 146.68C532.274 134.347 553.896 140.848 589.175 158.995C594.307 150.694 599.618 142.505 605.106 134.435C651.591 67.4996 720.426 15.1739 802.014 3.74627C813.388 2.15327 825.873 2.19604 836.944 0.140503L837.661 0ZM740.515 842.966C734.509 847.927 729.726 852.536 724.038 857.441C696.85 876.884 665.152 890.331 631.306 890.618C623.828 890.441 616.483 889.062 608.567 888.919C605.184 887.058 592.521 882.077 589.065 883.844C586.819 891.599 587.299 902.729 585.843 910.577C582.19 930.265 567.621 957.116 553.533 971.129C548.506 975.214 543.123 981.109 538.764 984.534C511.969 1004.13 486.265 1015.36 451.92 1010.03L450.929 1009.87C440.656 1032.93 437.021 1041.06 419.387 1058.99C415.81 1061.92 406.487 1070.19 403.243 1072.42C422.668 1090.71 436.227 1105.3 454.002 1125.61C458.758 1130.7 463.401 1137.37 467.941 1142.88C504.746 1193.15 531.342 1243.06 549.073 1302.81C559.622 1338.36 565.149 1345.7 558.39 1382.75C552.95 1412.58 565.891 1453.88 583.784 1478.75C584.231 1510.16 603.84 1580.09 618.864 1608.05C624.899 1619.24 632.629 1629.44 641.783 1638.29C672.739 1668.21 718.268 1678.64 756.819 1694.88C788.285 1708.13 816.73 1721.83 849.505 1732H925.215C927.465 1730.75 929.698 1729.45 931.898 1728.11C954.636 1713.94 963.137 1695.52 968.805 1670.27C998.26 1680.27 1028.08 1687.8 1056.37 1668.65C1061.67 1665.06 1066.54 1659.94 1071.73 1656.02L1102.31 1633.27C1104.4 1634.28 1106.52 1635.23 1108.67 1636.11C1119.27 1640.47 1137.76 1645.98 1149.28 1649.54C1185.82 1660.73 1238.09 1679.3 1275.24 1664.45C1317.75 1647.44 1335.1 1576.48 1318.08 1537.16C1305.4 1507.88 1277.08 1501.66 1249.53 1513.82C1251.87 1502.56 1253.9 1491.25 1255.6 1479.87C1256.87 1479.8 1258.13 1479.72 1259.39 1479.63C1308.95 1475.98 1320.01 1420.99 1308.54 1380.97C1304.84 1368.03 1298.85 1360.69 1288.7 1352.16C1292.22 1334.1 1311 1266.6 1304.6 1252.84C1303.45 1250.38 1301.49 1248.43 1298.85 1247.66C1293.82 1246.18 1288.84 1248.65 1284.6 1251.09C1252.67 1226.56 1240.01 1215.17 1199.55 1231.28C1198.84 1228.43 1199.72 1215.08 1199.97 1210.89C1203.12 1159.51 1215.2 1099.35 1234.84 1051.65C1237.71 1046.48 1239.86 1037.99 1243.01 1031.73C1245.15 1028.11 1247.65 1022.06 1249.38 1018.12C1261.43 990.504 1277.3 965.784 1293.74 940.608L1274.7 934.079C1265.17 947.61 1256.9 959.374 1249.1 973.946C1241.6 970.791 1234.17 967.476 1226.81 964C1207.29 954.224 1191.18 941.657 1173.65 929.039C1186.01 908.733 1195.05 890.305 1205.88 869.543L1203.56 866.558C1198.74 864.537 1188.91 868.503 1183.63 870.178C1140.98 872.943 1128.52 865.712 1101.11 834.898C1100.25 832.278 1091 810.029 1089.49 806.635L1089.14 803.841L1087.92 803.141C1083.94 805.118 1081.63 808.314 1078.17 811.018C1012.14 862.541 927.702 877.028 849.387 845.838C845.429 842.465 833.984 837.683 828.872 836.781C803.623 822.514 792.567 809.851 770.642 795.222C760.854 815.634 756.274 826.116 740.515 842.966Z" fill="#497D27"/>
<path d="M770.642 795.222C792.567 809.851 803.623 822.514 828.872 836.781C833.984 837.683 845.429 842.465 849.387 845.838C927.702 877.028 1012.14 862.541 1078.17 811.018C1081.63 808.314 1083.94 805.118 1087.92 803.141L1089.14 803.841L1089.49 806.635C1091 810.029 1100.25 832.277 1101.11 834.897C1128.52 865.712 1140.98 872.943 1183.63 870.178C1188.91 868.503 1198.74 864.537 1203.56 866.558L1205.88 869.543C1195.05 890.305 1186.01 908.733 1173.65 929.039C1191.18 941.657 1207.29 954.224 1226.81 964C1234.17 967.476 1241.6 970.791 1249.1 973.945C1256.9 959.374 1265.17 947.61 1274.7 934.079L1293.74 940.608C1277.3 965.784 1261.43 990.504 1249.38 1018.12C1247.65 1022.06 1245.15 1028.11 1243.01 1031.73C1239.86 1037.99 1237.71 1046.48 1234.84 1051.65C1215.2 1099.35 1203.12 1159.51 1199.97 1210.89C1199.72 1215.08 1198.84 1228.43 1199.55 1231.28C1240.01 1215.17 1252.67 1226.56 1284.6 1251.09C1288.84 1248.65 1293.82 1246.18 1298.85 1247.66C1301.49 1248.43 1303.45 1250.38 1304.6 1252.84C1311 1266.6 1292.22 1334.1 1288.7 1352.16C1298.85 1360.69 1304.84 1368.03 1308.54 1380.97C1320.01 1420.99 1308.95 1475.98 1259.39 1479.63C1258.13 1479.72 1256.87 1479.8 1255.6 1479.87C1253.9 1491.25 1251.87 1502.56 1249.53 1513.82C1277.08 1501.66 1305.4 1507.88 1318.08 1537.16C1335.1 1576.48 1317.75 1647.44 1275.24 1664.45C1238.09 1679.3 1185.82 1660.73 1149.28 1649.54C1137.76 1645.97 1119.27 1640.47 1108.67 1636.11C1106.52 1635.23 1104.4 1634.28 1102.31 1633.27L1071.73 1656.02C1066.54 1659.94 1061.67 1665.06 1056.37 1668.65C1028.08 1687.8 998.26 1680.27 968.805 1670.27C963.137 1695.52 954.636 1713.94 931.897 1728.11C929.698 1729.45 927.465 1730.75 925.215 1732H849.505C816.73 1721.83 788.285 1708.13 756.819 1694.88C718.268 1678.64 672.739 1668.21 641.783 1638.29C632.629 1629.44 624.898 1619.24 618.864 1608.05C603.84 1580.09 584.231 1510.16 583.784 1478.75C565.891 1453.88 552.95 1412.58 558.39 1382.75C565.149 1345.7 559.622 1338.36 549.073 1302.81C531.342 1243.06 504.746 1193.15 467.941 1142.88C463.401 1137.37 458.758 1130.7 454.002 1125.61C436.227 1105.3 422.668 1090.71 403.242 1072.42C406.487 1070.19 415.81 1061.92 419.387 1058.99C437.021 1041.06 440.656 1032.93 450.929 1009.87L451.92 1010.03C486.265 1015.36 511.969 1004.13 538.764 984.534C543.123 981.109 548.506 975.214 553.533 971.129C567.621 957.116 582.19 930.265 585.843 910.577C587.299 902.729 586.819 891.599 589.065 883.844C592.521 882.077 605.183 887.058 608.567 888.918C616.483 889.062 623.828 890.441 631.305 890.618C665.151 890.331 696.85 876.884 724.038 857.441C729.726 852.536 734.509 847.927 740.515 842.966C756.274 826.116 760.854 815.634 770.642 795.222ZM668.592 1086.47C666.761 1075.03 666.011 1063.01 663.951 1051.57C661.515 1038.03 658.026 1024.42 654.764 1011.04C637.27 1028.89 629.157 1027.7 607.14 1033.88C609.899 1036.29 613.282 1039.8 615.784 1042.48C631.869 1059.69 649.19 1073.23 668.592 1086.47ZM783.687 945.783C793.659 963.171 806.326 982.462 820.074 997.135C825.571 976.779 829.291 955.974 831.189 934.975C815.927 942.545 801.035 946.976 783.687 945.783ZM1082.08 1000.3C1096.07 992.433 1108.22 981.684 1118.76 969.632C1106.6 969.074 1090.08 965.167 1078.77 961.133C1078.94 971.434 1080.05 990.081 1082.08 1000.3Z" fill="#80AB47"/>
<path d="M1274.7 934.079L1293.74 940.608C1277.3 965.784 1261.43 990.504 1249.38 1018.12C1247.65 1022.06 1245.15 1028.11 1243.01 1031.73C1239.86 1037.99 1237.71 1046.48 1234.84 1051.65C1215.2 1099.35 1203.12 1159.51 1199.97 1210.89C1199.72 1215.08 1198.84 1228.43 1199.55 1231.28C1240.01 1215.17 1252.67 1226.56 1284.6 1251.09C1288.84 1248.65 1293.82 1246.18 1298.85 1247.66C1301.49 1248.43 1303.45 1250.38 1304.6 1252.84C1311 1266.6 1292.22 1334.1 1288.7 1352.16C1298.85 1360.69 1304.84 1368.03 1308.54 1380.97C1320.01 1420.99 1308.95 1475.98 1259.39 1479.63C1258.13 1479.72 1256.87 1479.8 1255.6 1479.87C1253.9 1491.25 1251.87 1502.56 1249.53 1513.82C1277.08 1501.66 1305.4 1507.88 1318.08 1537.16C1335.1 1576.48 1317.75 1647.44 1275.24 1664.45C1238.09 1679.3 1185.82 1660.73 1149.28 1649.54C1137.76 1645.98 1119.27 1640.47 1108.67 1636.11C1106.52 1635.23 1104.4 1634.28 1102.31 1633.27L1071.73 1656.02C1066.54 1659.94 1061.67 1665.06 1056.37 1668.65C1028.08 1687.8 998.26 1680.27 968.805 1670.27C963.137 1695.52 954.636 1713.94 931.897 1728.11C929.698 1729.45 927.465 1730.75 925.215 1732H849.505C816.73 1721.83 788.285 1708.13 756.819 1694.88C718.268 1678.64 672.739 1668.21 641.783 1638.29C632.629 1629.44 624.898 1619.24 618.864 1608.05C603.84 1580.09 584.231 1510.16 583.784 1478.75C565.891 1453.88 552.95 1412.58 558.39 1382.75C565.149 1345.7 559.622 1338.36 549.073 1302.81C531.342 1243.06 504.746 1193.15 467.941 1142.88C463.401 1137.37 458.758 1130.7 454.002 1125.61C436.227 1105.3 422.668 1090.71 403.242 1072.42C406.487 1070.19 415.81 1061.92 419.387 1058.99C437.457 1077.42 459.051 1099.52 475.168 1119.58C515.571 1169.84 546.741 1228.49 566.246 1289.92C572.557 1309.79 581.65 1336.01 581.691 1356.8C581.697 1368.96 578.694 1381.23 577.814 1393.24C575.899 1419.39 587.606 1454.23 605.677 1472.99C636.188 1504.68 727.019 1528.96 763.533 1498.04C772.068 1490.7 777.872 1481.85 777.461 1470.06C776.23 1434.65 732.311 1437.4 707.86 1430.17C686.627 1423.67 666.12 1413.93 649.403 1399.06C639.647 1390.39 644.564 1375.75 657.064 1379.95C662.262 1381.7 670.482 1390.98 675.77 1394.26C690.997 1403.71 709.713 1410.63 727.293 1413.9C729.892 1387.31 733.761 1361.1 740.741 1335.27C745.13 1319.03 750.365 1320.08 765.76 1319.86C789.168 1291.78 794.565 1288.14 832.014 1288.66C895.421 1289.54 957.698 1305.77 1015.39 1331.59C1028.16 1337.31 1041.79 1348.6 1053.6 1356.62C1058.69 1349.67 1065.49 1335.45 1071.9 1326.32C1093.95 1294.92 1117.36 1279.43 1148.22 1259.15C1147.84 1255.22 1148.18 1249.5 1148.5 1245.34C1155.1 1160.26 1166.66 1076.2 1207.63 999.926C1214.27 987.578 1221.44 976.567 1226.81 964C1234.17 967.476 1241.6 970.791 1249.1 973.946C1256.9 959.374 1265.17 947.61 1274.7 934.079Z" fill="#274514"/>
<path d="M1226.81 964C1234.17 967.476 1241.6 970.791 1249.1 973.945C1201.63 1063.29 1180.95 1141.19 1177.48 1242.74C1167.66 1248.06 1157.72 1253.31 1148.22 1259.15C1147.84 1255.22 1148.18 1249.5 1148.5 1245.34C1155.1 1160.26 1166.66 1076.2 1207.63 999.925C1214.27 987.578 1221.44 976.567 1226.81 964Z" fill="#AACD6D"/>
<path d="M759.155 1339.1C781.407 1346.1 809.383 1351.9 832.39 1357.96C891.547 1373.56 952.047 1386.97 1011.05 1403.01C1007.47 1424.43 1004.98 1445.83 1001.83 1467.26L984.167 1582.71C980.555 1605.53 977.129 1630.96 972.155 1653.33C966.741 1625.93 966.013 1599.15 941.076 1580.08C901.521 1555.46 867.125 1586.18 847.035 1619.76C806.134 1608.25 760.907 1598.78 718.912 1587.66C719.367 1571.87 723.981 1547.2 727.063 1531.85C753.541 1526.43 781.92 1518.08 793.27 1490.56C798.398 1478.13 798.343 1462.53 793.249 1450.07C785.235 1430.46 765.279 1424.08 747.178 1416.83C747.998 1395.33 755.073 1360.24 759.155 1339.1Z" fill="#915D32"/>
<path d="M1283.08 1275.23C1283.13 1275.27 1283.2 1275.3 1283.23 1275.36C1285.97 1279.88 1270.53 1343.45 1268.11 1352.82C1252 1363.45 1239.9 1366.14 1227.11 1383.66C1215.99 1398.89 1209.04 1419.62 1211.98 1438.52C1214.76 1456.42 1222.3 1465.54 1236.29 1475.86C1223.97 1540.02 1229.25 1530.49 1173.33 1566.49C1146.52 1583.84 1119.57 1601 1092.5 1617.95C1086.87 1621.68 1081.19 1625.33 1075.46 1628.91L1102.89 1455.5L1109.62 1412.83C1110.82 1405.21 1112.23 1393.41 1114.58 1386.43C1140.9 1366.76 1173.61 1346.07 1200.97 1327.79C1226.85 1310.48 1256.29 1291.19 1283.08 1275.23Z" fill="#915D32"/>
<path d="M605.092 1498.26C635.752 1517.5 670.769 1528.71 706.909 1530.85C705.08 1542.16 695.976 1590.07 699.487 1598.11C704.283 1609.11 747.077 1614.33 756.866 1618.15C778.255 1623.83 800.054 1628.31 821.543 1633.68C827.855 1635.25 847.602 1641.82 852.796 1641.71C860.375 1641.54 876.659 1600.27 902.671 1592.51C912.281 1589.63 921.29 1591.41 929.85 1596.21C963.433 1619.98 956.294 1712.18 904.236 1717.21C853.811 1722.09 811.161 1695.14 765.889 1677.23C732.864 1664.1 697.268 1653.88 667.928 1634.03C626.553 1606.02 615.615 1544.36 605.092 1498.26Z" fill="#65943A"/>
<path d="M756.866 1618.15C778.255 1623.83 800.054 1628.31 821.543 1633.68C827.855 1635.25 847.602 1641.82 852.796 1641.71C860.375 1641.54 876.659 1600.27 902.671 1592.51C912.281 1589.63 921.29 1591.41 929.85 1596.21C915.097 1601.9 906.317 1609.32 899.989 1624.1C892.342 1641.97 887.546 1663.73 883.291 1682.72C845.977 1679.82 782.202 1645.97 755.871 1619.66C756.379 1618.34 755.973 1618.79 756.866 1618.15Z" fill="#80AB47"/>
<path d="M796.829 1315.57C802.616 1307.85 812.838 1308.51 821.771 1308.43C888.485 1307.77 957.165 1324.51 1016.63 1354.66C1027.99 1360.41 1050.72 1380.32 1062.25 1380.75C1067.45 1376.9 1079.48 1350.46 1086.11 1340.9C1095.19 1327.83 1105.82 1315.91 1117.77 1305.42C1141.91 1284.14 1200.34 1247.25 1231.62 1241.67L1232.78 1241.48C1236.88 1243.22 1241.95 1245.87 1246.05 1247.88C1248.06 1248.83 1249.47 1249.35 1251.16 1250.83C1256.12 1254.84 1261.62 1257.75 1266.12 1261.49L1122.51 1355.84C1109.33 1364.57 1093.43 1378.08 1079.53 1384.78C1071.42 1388.7 1046.91 1388.4 1037.78 1387.03L1033.88 1386.27C1023.8 1385.2 1009.03 1381.31 998.945 1378.81L940.171 1363.88C904.769 1355.39 869.435 1346.61 834.174 1337.54C824.979 1335.2 795.233 1328.23 788.963 1324.88L789.024 1323.64C792.533 1320.59 794.152 1319.45 796.829 1315.57Z" fill="#F0E8C4"/>
<path d="M796.829 1315.57L798.216 1315.5C804.244 1315.16 811.469 1313.23 817.599 1314.06C871.744 1321.36 923.853 1329.23 975.513 1347.66C1010.47 1360.14 1012.81 1359.81 1037.78 1387.03L1033.88 1386.27C1023.8 1385.2 1009.03 1381.31 998.945 1378.81L940.171 1363.88C904.769 1355.39 869.435 1346.61 834.174 1337.54C824.979 1335.2 795.233 1328.23 788.963 1324.88L789.024 1323.64C792.533 1320.59 794.152 1319.45 796.829 1315.57Z" fill="#C09A75"/>
<path d="M789.024 1323.64C806.668 1320.44 838.903 1330.61 861.196 1334.04C919.192 1342.95 978.804 1361.15 1032.61 1385.27C1033.04 1385.6 1033.46 1385.94 1033.88 1386.27C1023.8 1385.2 1009.03 1381.31 998.945 1378.81L940.171 1363.88C904.769 1355.39 869.435 1346.61 834.174 1337.54C824.979 1335.2 795.233 1328.23 788.963 1324.88L789.024 1323.64Z" fill="#F0E8C4"/>
<path d="M1246.05 1247.88C1248.06 1248.83 1249.47 1249.35 1251.16 1250.83C1250.97 1252.73 1250.42 1254.84 1248.85 1256.11C1236.35 1265.83 1221.17 1272.59 1207.4 1280.5C1167.98 1303.18 1131.51 1330.03 1097.42 1360.06C1092.89 1364.04 1082.2 1377.9 1077.15 1378.22L1075.99 1377.02C1077.09 1370.37 1089.92 1350.71 1094.64 1345.41C1123.52 1313.01 1163.83 1288.43 1202.14 1268.41C1216.03 1261.15 1233 1255.67 1246.05 1247.88Z" fill="#C09A75"/>
<path d="M1089.09 1402.21L1090.02 1402.45C1091.47 1406.15 1058.16 1620.22 1054.56 1643.14C1038.29 1661.97 1019.4 1664.21 996.551 1657.65C994.673 1656.77 994.555 1656.46 993.023 1655.02C992.11 1652.23 994.791 1639.84 995.375 1636.09L1003.12 1587.07L1017.05 1495.74C1021.23 1469.56 1027.7 1432.74 1030.02 1406.62C1053.72 1408.71 1066.76 1410.45 1089.09 1402.21Z" fill="#915D32"/>
<path d="M1270.81 1527.51C1274.6 1526.89 1278.49 1527.09 1282.21 1528.07C1288.45 1529.69 1294.47 1534.12 1297.46 1540.04C1313.76 1570.67 1301.81 1626.24 1271.43 1644.3C1246.55 1659.1 1200.98 1644.22 1174.95 1636.86C1158.12 1631.93 1141.46 1625.96 1124.58 1621.16C1157.81 1598.77 1192.3 1577.85 1225.71 1555.79C1244.65 1543.28 1245.86 1533.21 1270.81 1527.51Z" fill="#65943A"/>
<path d="M1276.51 1372.49C1299.11 1372.22 1304.2 1470.38 1249.84 1458.45C1227.82 1452.62 1229.08 1424.65 1236.06 1407.72C1244.09 1388.23 1257.88 1380.27 1276.51 1372.49Z" fill="#86AD4C"/>
<path d="M538.764 984.534C549.224 996.763 558.146 1009.63 569.62 1022.58C571.9 1021.11 508.761 1085.03 510.099 1083.34C562.363 1142.66 600.484 1221.75 619.795 1298.13C630.68 1341.18 631.244 1386.17 637.572 1429.87C638.65 1437.31 643.182 1448.14 647.671 1454.36C664.97 1473.27 700.486 1486.92 725.064 1492.4C738.165 1495.34 751.099 1495.79 763.533 1498.04C727.019 1528.95 636.188 1504.68 605.677 1472.99C587.606 1454.23 575.899 1419.39 577.814 1393.24C578.694 1381.23 581.697 1368.96 581.692 1356.8C581.65 1336.01 572.557 1309.79 566.246 1289.92C546.741 1228.49 515.571 1169.84 475.168 1119.58C459.051 1099.52 437.457 1077.42 419.387 1058.99C437.021 1041.06 440.656 1032.93 450.929 1009.87L451.92 1010.03C486.265 1015.36 511.969 1004.13 538.764 984.534Z" fill="#65943A"/>
<path d="M1089.49 806.635C1091 810.029 1100.25 832.277 1101.11 834.897C1128.52 865.712 1140.98 872.943 1183.63 870.177C1188.91 868.503 1198.74 864.537 1203.56 866.558L1205.88 869.543C1195.05 890.305 1186.01 908.733 1173.65 929.038C1158.38 953.606 1126.38 994.327 1103.55 1010.78C1032.8 1061.78 1065.59 899.667 1071.47 873.425C1076.36 852.841 1082.61 826.553 1089.49 806.635ZM1082.08 1000.3C1096.07 992.432 1108.22 981.683 1118.76 969.632C1106.6 969.074 1090.08 965.167 1078.77 961.133C1078.94 971.434 1080.05 990.081 1082.08 1000.3Z" fill="#274514"/>
<path d="M1101.11 834.897C1128.52 865.712 1140.98 872.943 1183.63 870.178C1171.48 891.904 1151.03 930.51 1134.78 948.921C1129.26 956.549 1124.83 962.41 1118.76 969.632C1106.6 969.074 1090.08 965.167 1078.77 961.133C1079.47 953.657 1079.7 945.504 1080.35 937.792C1083.06 919.457 1085.4 902.686 1089.43 884.47C1093.12 867.86 1097.58 851.471 1101.11 834.897Z" fill="#497D27"/>
<path d="M1080.35 937.792C1095.57 947.619 1116.96 950.351 1134.78 948.921C1129.26 956.55 1124.83 962.41 1118.76 969.633C1106.6 969.075 1090.08 965.167 1078.77 961.133C1079.47 953.657 1079.7 945.505 1080.35 937.792Z" fill="#344C1C"/>
<path d="M849.387 845.839C927.702 877.028 1012.14 862.541 1078.17 811.019C1081.63 808.314 1083.94 805.118 1087.92 803.142L1089.14 803.841L1089.49 806.635C1082.61 826.553 1076.36 852.841 1071.47 873.425C1068.95 872.757 1067.93 873.316 1065.57 874.889C998.48 919.542 926.898 928.641 852.804 895.49C852.847 901.765 853.244 915.017 851.958 920.582C851.121 894.619 852.618 873.053 849.387 845.839Z" fill="#65943A"/>
<path d="M770.642 795.222C792.567 809.851 803.623 822.514 828.872 836.781C829.848 856.689 831.504 878 831.801 897.765C832.134 905.731 832.613 927.609 831.189 934.975C815.927 942.545 801.035 946.976 783.688 945.783C779.461 938.62 775.672 931.204 772.341 923.575C761.612 908.277 746.464 861.568 740.515 842.966C756.274 826.116 760.854 815.634 770.642 795.222Z" fill="#497D27"/>
<path d="M831.801 897.765C832.134 905.731 832.613 927.61 831.189 934.976C815.927 942.545 801.035 946.976 783.688 945.784C779.461 938.62 775.673 931.204 772.341 923.575C795.694 928.523 812.057 923.584 831.639 910.915L831.801 897.765Z" fill="#344C1C"/>
<path d="M553.533 971.13C567.621 957.116 582.19 930.265 585.843 910.577C587.299 902.729 586.819 891.6 589.065 883.845C592.521 882.077 605.184 887.058 608.567 888.919C621.335 919.017 637.844 958.52 647.576 989.118C650.091 995.477 653.272 1004.35 654.764 1011.04C637.27 1028.89 629.157 1027.7 607.14 1033.88C603.014 1032.38 589.562 1015.67 586.015 1011.43C577.732 1003.92 560.316 980.399 553.533 971.13Z" fill="#497D27"/>
<path d="M647.576 989.117C650.091 995.477 653.272 1004.35 654.764 1011.04C637.27 1028.89 629.157 1027.7 607.14 1033.88C603.014 1032.37 589.562 1015.67 586.015 1011.43C593.135 1013.08 603.474 1013.3 610.682 1012.15C625.538 1009.64 638.8 1001.36 647.576 989.117Z" fill="#344C1C"/>
<path d="M608.567 888.918C616.483 889.062 623.828 890.441 631.305 890.618C639.207 909.951 646.831 929.394 654.173 948.946C668.79 987.333 682.327 1023.71 686.826 1064.93C687.984 1075.53 689.445 1086.93 685.872 1097.46C684.199 1102.39 678.294 1105.44 673.924 1107.9C666.441 1104.88 654.234 1100.18 647.813 1095.97C617.512 1076.07 593.012 1049.4 569.62 1022.58C558.146 1009.63 549.224 996.763 538.764 984.534C543.123 981.109 548.506 975.214 553.533 971.129C560.316 980.398 577.732 1003.92 586.015 1011.43C589.562 1015.67 603.014 1032.38 607.14 1033.88C609.899 1036.29 613.282 1039.8 615.784 1042.48C631.869 1059.69 649.19 1073.23 668.592 1086.47C666.761 1075.03 666.011 1063.01 663.951 1051.57C661.515 1038.03 658.026 1024.42 654.764 1011.04C653.272 1004.35 650.091 995.477 647.576 989.117C637.844 958.52 621.335 919.017 608.567 888.918Z" fill="#274514"/>
<path d="M828.872 836.781C833.984 837.683 845.429 842.465 849.387 845.838C852.618 873.053 851.121 894.618 851.958 920.582C851.129 945.8 847.712 981.286 838.95 1005.22C836.683 1010.75 832.368 1017.02 826.512 1018.98C812.965 1023.52 801.942 1007.6 794.538 998.471C761.341 957.522 740.413 907.084 724.038 857.441C729.726 852.536 734.509 847.927 740.515 842.966C746.464 861.568 761.612 908.276 772.341 923.575C775.672 931.203 779.461 938.62 783.688 945.783C793.659 963.171 806.326 982.462 820.074 997.135C825.572 976.778 829.291 955.974 831.189 934.975C832.613 927.609 832.134 905.731 831.801 897.764C831.504 878 829.848 856.689 828.872 836.781Z" fill="#274514"/>
<path d="M819.272 1171.05C836.78 1167.73 853.692 1179.14 857.169 1196.62C860.646 1214.09 849.378 1231.1 831.931 1234.72C814.269 1238.39 797.003 1226.96 793.486 1209.27C789.969 1191.58 801.55 1174.42 819.272 1171.05Z" fill="#274514"/>
<path d="M1070.2 1144.57C1081.65 1142.53 1093.32 1146.8 1100.75 1155.76C1108.17 1164.72 1110.2 1176.98 1106.05 1187.85C1101.9 1198.73 1092.22 1206.52 1080.71 1208.26C1063.25 1210.91 1046.9 1199.03 1044.02 1181.61C1041.15 1164.19 1052.8 1147.69 1070.2 1144.57Z" fill="#274514"/>
<path d="M996.551 1236.29C999.892 1236.21 1003.1 1236 1005.5 1238.64C1012.71 1246.55 1002.9 1260.26 997.38 1266.24C988.193 1276.19 974.05 1283.25 960.54 1283.69C946.904 1284.14 934.604 1278.41 924.783 1269.31C919.674 1263.85 910.986 1253.53 919.158 1246.41C929.893 1242.8 942.488 1264 958.662 1264.11C984.962 1264.28 982.703 1247.3 996.551 1236.29Z" fill="#274514"/>
<path d="M837.661 0H852.533L853.244 0.13603C867.227 2.67589 881.743 2.96909 896.352 5.9374C962.401 19.3505 1018.98 62.4974 1056.99 117.17C1063.04 123.199 1065.26 136.469 1075.49 128.287C1087.27 118.87 1100.31 111.301 1114.57 106.354C1214.65 71.619 1302.58 133.149 1328.94 229.389C1438.97 205.774 1549.42 279.469 1572.18 388.7C1577.1 412.568 1577.93 437.096 1574.64 461.242C1573.84 466.919 1568.9 491.004 1570.23 494.266L1571.24 494.889C1577.33 498.653 1578.04 500.663 1583.41 504.779C1591.51 511.007 1600.95 517.309 1608 524.841C1631.84 550.321 1648.53 583.109 1655.93 617.154C1656.58 620.142 1657.31 625.234 1658 627.714V696.709C1655.42 709.112 1653.14 723.16 1649.18 735.258C1631.02 790.633 1597.97 840.518 1548.55 872.639C1533.75 882.254 1511.9 894.762 1495.09 899.549C1487.36 953.869 1468.19 993.211 1423.26 1026.84C1380.99 1057.87 1328.09 1070.77 1276.28 1062.69C1264.99 1061.01 1245.66 1056.39 1234.84 1051.65C1237.71 1046.48 1239.86 1037.99 1243.01 1031.73C1251.73 1035.51 1260.8 1038.43 1270.09 1040.45C1354.49 1059.05 1450.67 1009.52 1470.02 922.231C1472.78 909.765 1473.88 897.562 1476.58 885.274C1479.39 882.111 1487.2 879.861 1491.37 878.423C1559.78 854.972 1604.04 800.222 1627.9 734.81C1626.28 731.504 1625.53 700.074 1624.68 693.218C1620.76 660.015 1615.7 626.83 1599.09 597.351C1580.62 564.571 1550.53 551.667 1520.78 531.814C1520.22 531.443 1522.36 489.952 1522.34 486.166C1521.54 365.022 1432.17 277.14 1307.21 311.958C1304.19 305.723 1301.19 295.864 1298.54 289.048C1291.68 270.882 1284.03 253.946 1273.39 237.714C1230.52 172.284 1148.92 163.037 1084.81 202.617C1075.82 208.165 1067.76 214.47 1059.08 220.582C1028.53 171.671 999.681 136.847 947.023 110.745C810.926 43.2893 660.295 119.581 594.897 246.417C556.047 221.26 523.332 215.443 479.965 235.979C437.129 256.262 419.783 297.571 405.773 339.307C347.017 320.89 295.542 335.987 251.051 376.125C194.413 427.22 179.088 499.077 186.116 571.949C186.551 576.461 187.263 584.426 185.988 588.416C184.442 593.253 168.619 597.828 165.153 598.979C162.263 604.714 139.762 612.435 132.901 615.791C37.5852 662.416 -11.8122 796.825 40.242 892.124C57.2957 923.499 72.0912 938.341 101.728 958.444L101.646 959.738C100.707 973.328 96.334 987.062 95.1235 1000.74C89.0947 1068.88 124.374 1141.86 199.217 1146.93C214.124 1147.93 229.065 1145.52 242.899 1139.88C247.729 1137.91 270.369 1123.84 272.757 1123.9C280.463 1124.07 307.46 1181.62 383.171 1169.72C402.746 1166.65 423.747 1157.32 438.659 1144.19C444.441 1139.11 450.471 1132.49 454.002 1125.61C458.758 1130.7 463.401 1137.37 467.941 1142.88C441.091 1175.42 401.866 1192.87 359.541 1192.34C323.016 1191.89 295.031 1174.33 270.526 1148.61C264.402 1151.22 258.421 1155.04 252.25 1157.74C206.64 1177.74 149.806 1165.24 116.239 1128.8C85.766 1095.72 72.3654 1053.06 74.5898 1008.65C75.2845 994.784 77.9597 981.32 78.5531 967.544C75.3354 964.381 71.7005 961.573 68.2001 958.748C33.062 930.409 9.98945 887.117 2.46864 842.939C1.56151 837.611 1.03982 832.232 0 826.883V784.972C3.467 771.462 2.67985 760.597 8.24812 742.883C32.1093 666.971 70.4722 623.401 140.092 586.714C127.482 548.628 127.236 486.804 134.981 447.596C147.006 386.714 182.976 330.862 234.674 295.895C272.332 270.424 314.924 253.888 361.134 255.563C371.989 255.956 383.848 258.559 394.552 260.66C398.169 245.177 401.898 231.241 409.169 217.005C426.751 183.291 457.058 157.979 493.371 146.68C532.274 134.347 553.896 140.848 589.175 158.995C594.307 150.694 599.618 142.505 605.106 134.435C651.591 67.4996 720.426 15.1739 802.014 3.74627C813.388 2.15327 825.873 2.19604 836.944 0.140503L837.661 0Z" fill="#69903D"/>
<path d="M837.661 0H852.533L853.244 0.13603C867.227 2.67589 881.743 2.96909 896.352 5.9374C962.401 19.3505 1018.98 62.4974 1056.99 117.17C1063.04 123.199 1065.26 136.469 1075.49 128.287C1087.27 118.87 1100.31 111.301 1114.57 106.354C1214.65 71.619 1302.58 133.149 1328.94 229.389C1438.97 205.774 1549.42 279.469 1572.18 388.7C1577.1 412.568 1577.93 437.096 1574.64 461.242C1573.84 466.919 1568.9 491.004 1570.23 494.266L1571.24 494.889C1577.33 498.653 1578.04 500.663 1583.41 504.779C1591.51 511.007 1600.95 517.309 1608 524.841C1631.84 550.321 1648.53 583.109 1655.93 617.154C1656.58 620.142 1657.31 625.234 1658 627.714V696.709C1655.42 709.112 1653.14 723.16 1649.18 735.258C1631.02 790.633 1597.97 840.518 1548.55 872.639C1533.75 882.254 1511.9 894.762 1495.09 899.549C1487.36 953.869 1468.19 993.211 1423.26 1026.84C1380.99 1057.87 1328.09 1070.77 1276.28 1062.69C1264.99 1061.01 1245.66 1056.39 1234.84 1051.65C1237.71 1046.48 1239.86 1037.99 1243.01 1031.73C1251.73 1035.51 1260.8 1038.43 1270.09 1040.45C1354.49 1059.05 1450.67 1009.52 1470.02 922.231C1472.78 909.765 1473.88 897.562 1476.58 885.274C1479.39 882.111 1487.2 879.861 1491.37 878.423C1559.78 854.972 1604.04 800.222 1627.9 734.81C1636.55 711.433 1640.9 686.685 1640.73 661.761C1640.9 612.485 1621.79 564.057 1584.28 530.099C1574.08 520.873 1559.6 515.678 1549.65 506.91C1547.97 505.371 1547.5 502.164 1547.79 499.986C1550.17 481.47 1554.81 464.022 1556.27 445.269C1560.24 397.462 1544.88 350.056 1513.64 313.648C1475.07 268.641 1418.84 239.261 1359.04 246.305C1346.51 247.783 1324.51 254.906 1318.05 254.4C1316.12 252.856 1314.9 250.569 1314.1 248.257C1308.02 230.59 1304.44 214.163 1295.93 197.176C1277.07 159.53 1249.99 137.193 1210.5 123.3C1172.94 110.09 1129.21 117.563 1095.73 138.015C1085.74 144.121 1074.48 155.245 1064.65 160.081C1060.53 157.532 1036.77 122.262 1031.37 115.361C1024.22 106.266 1016.51 97.6263 1008.28 89.494C964.745 46.8711 907.45 20.1036 845.815 20.3261C755.341 20.6524 683.305 64.2914 629.642 135.396C624.03 142.76 618.943 150.51 614.421 158.589C610.509 165.438 602.822 180.646 597.925 185.641C594.419 185.869 584.048 179.407 580.742 177.374C549.129 157.097 518.888 156.482 485.976 171.3C437.699 193.035 421.113 227.306 411.279 276.619C409.507 284.692 396.445 282.127 390.857 280.627C304.325 257.386 206.61 321.853 171.359 400.205C145.972 456.631 141.723 538.795 165.153 598.979C162.263 604.714 139.762 612.435 132.901 615.791C37.5852 662.416 -11.8122 796.825 40.242 892.124C57.2957 923.499 72.0912 938.341 101.728 958.444L101.646 959.738C100.707 973.328 96.334 987.062 95.1235 1000.74C89.0947 1068.88 124.374 1141.86 199.217 1146.93C214.124 1147.93 229.065 1145.52 242.899 1139.88C247.729 1137.91 270.369 1123.84 272.757 1123.9C280.463 1124.07 307.46 1181.62 383.171 1169.72C402.746 1166.65 423.747 1157.32 438.659 1144.19C444.441 1139.11 450.471 1132.49 454.002 1125.61C458.758 1130.7 463.401 1137.37 467.941 1142.88C441.091 1175.42 401.866 1192.87 359.541 1192.34C323.016 1191.89 295.031 1174.33 270.526 1148.61C264.402 1151.22 258.421 1155.04 252.25 1157.74C206.64 1177.74 149.806 1165.24 116.239 1128.8C85.766 1095.72 72.3654 1053.06 74.5898 1008.65C75.2845 994.784 77.9597 981.32 78.5531 967.544C75.3354 964.381 71.7005 961.573 68.2001 958.748C33.062 930.409 9.98945 887.117 2.46864 842.939C1.56151 837.611 1.03982 832.232 0 826.883V784.972C3.467 771.462 2.67985 760.597 8.24812 742.883C32.1093 666.971 70.4722 623.401 140.092 586.714C127.482 548.628 127.236 486.804 134.981 447.596C147.006 386.714 182.976 330.862 234.674 295.895C272.332 270.424 314.924 253.888 361.134 255.563C371.989 255.956 383.848 258.559 394.552 260.66C398.169 245.177 401.898 231.241 409.169 217.005C426.751 183.291 457.058 157.979 493.371 146.68C532.274 134.347 553.896 140.848 589.175 158.995C594.307 150.694 599.618 142.505 605.106 134.435C651.591 67.4996 720.426 15.1739 802.014 3.74627C813.388 2.15327 825.873 2.19604 836.944 0.140503L837.661 0Z" fill="#344C1C"/>
<path d="M403.242 1072.42C379.153 1085.18 356.523 1095.74 328.805 1086.09C318.596 1082.53 317.828 1068.52 326.304 1068.28C339.571 1067.91 354.388 1071.29 368.038 1067.27C393.326 1060.3 412.314 1039.91 424.824 1017.69C428.648 1010.96 434.319 991.536 441.833 989.929C446.688 988.889 458.025 990.631 463.634 990.919C472.806 991.333 481.988 990.411 490.896 988.187C532.215 977.531 569.226 928.76 568.266 886.483C568.147 881.223 567.798 862.964 569.919 859.403C576.443 855.547 587.813 860.858 594.655 863.302C641.053 883.092 711.109 855.682 737.3 815.466C768.287 767.886 747.407 743.264 805.406 796.421C823.436 812.946 862.464 831.257 888.24 837.011C945.153 849.551 1004.71 837.87 1052.66 804.768C1066.54 795.34 1078.62 784.867 1091.78 774.65C1094.94 772.203 1099.1 771.366 1103.04 772.313C1110.78 778.076 1108.01 793.648 1110.72 804.232C1114.35 821.34 1124.31 834.167 1138.75 843.124C1161.73 857.822 1184.95 849.534 1207.62 839.491C1215.98 835.792 1221.57 855.403 1223.88 860.452C1231.71 877.857 1244.08 892.834 1259.7 903.794C1286.21 922.29 1321.88 929.106 1353.72 921.799C1365.16 919.178 1375.4 911.972 1387.34 909.647C1398.95 907.389 1404.59 918.163 1395.52 925.419C1364.69 944.101 1328.67 949.335 1293.74 940.608L1274.7 934.079C1265.17 947.61 1256.9 959.374 1249.1 973.945C1241.6 970.791 1234.17 967.476 1226.81 964C1207.29 954.224 1191.18 941.657 1173.65 929.039C1186.01 908.733 1195.05 890.305 1205.88 869.543L1203.56 866.558C1198.74 864.537 1188.91 868.503 1183.63 870.178C1140.98 872.943 1128.52 865.712 1101.11 834.898C1100.25 832.278 1091 810.029 1089.49 806.635L1089.14 803.841L1087.92 803.141C1083.94 805.118 1081.63 808.314 1078.17 811.018C1012.14 862.541 927.702 877.028 849.387 845.838C845.429 842.465 833.984 837.683 828.872 836.781C803.623 822.514 792.567 809.851 770.642 795.222C760.854 815.634 756.274 826.116 740.515 842.966C734.509 847.927 729.726 852.536 724.038 857.441C696.85 876.884 665.151 890.331 631.305 890.618C623.828 890.441 616.483 889.062 608.567 888.918C605.183 887.058 592.521 882.077 589.065 883.844C586.819 891.599 587.299 902.729 585.843 910.577C582.19 930.265 567.621 957.116 553.533 971.129C548.506 975.214 543.123 981.109 538.764 984.534C511.969 1004.13 486.265 1015.36 451.92 1010.03L450.929 1009.87C440.656 1032.93 437.021 1041.06 419.387 1058.99C415.81 1061.92 406.487 1070.19 403.242 1072.42Z" fill="#344C1C"/>
<path d="M1205.88 869.543C1224.38 902.458 1239.35 918.611 1274.7 934.079C1265.17 947.61 1256.9 959.374 1249.1 973.946C1241.6 970.791 1234.17 967.476 1226.81 964C1207.29 954.224 1191.18 941.657 1173.65 929.039C1186.01 908.733 1195.05 890.305 1205.88 869.543Z" fill="#65943A"/>
<path d="M296.864 630.604C301.185 619.498 306.185 605.661 314.149 596.649C361.247 543.351 447.929 554.389 486.907 611.626C490.944 617.024 502.503 631.311 495.459 637.763C489.416 643.298 482.382 639.594 477.846 634.956C477.462 634.946 477.078 634.935 476.694 634.924C469.075 631.951 460.954 625.95 453.682 622.015C415.78 601.513 362.131 600.075 342.814 645.833C340.493 651.332 338.427 662.509 334.347 666.712C328.153 669.795 314.4 673.182 307.729 675.175C257.571 690.165 231.229 713.581 224.064 767.191C222.097 781.914 222.826 796.277 223.486 811.211C223.712 816.332 225.106 827.185 224.661 831.471C225.748 834.07 229.827 842.593 228.34 844.962C214.795 866.524 198.026 821.801 195.268 813.45C183.086 776.557 184.832 732.463 203.373 698.033C217.523 671.757 240.391 648.243 269.138 638.494C278.393 635.328 287.429 633.377 296.864 630.604Z" fill="#344C1C"/>
<path d="M224.661 831.471C209.309 801.501 201.698 769.716 209.842 736.414C219.237 697.999 242.544 665.88 282.099 656.09C287.544 654.743 303.845 653.754 307.359 651.764C313.069 648.532 319.405 610.526 347.064 593.866C367.144 581.77 393.893 579.467 416.362 585.235C444.876 592.555 463.179 610.028 477.846 634.956C477.462 634.946 477.078 634.935 476.694 634.924C469.075 631.951 460.954 625.95 453.682 622.016C415.78 601.513 362.131 600.075 342.814 645.833C340.493 651.332 338.427 662.51 334.347 666.712C328.153 669.795 314.4 673.182 307.729 675.176C257.571 690.165 231.229 713.582 224.064 767.191C222.097 781.914 222.826 796.277 223.486 811.211C223.712 816.332 225.107 827.185 224.661 831.471Z" fill="#69903D"/>
<path d="M904.634 374.534C903.229 377.749 903.06 379.627 899.55 380.586C870.484 388.522 893.112 352.853 898.416 345.943C913.584 325.854 936.186 312.695 961.149 309.417C982.018 306.792 1003.07 312.677 1019.55 325.743C1026.66 331.325 1031.06 336.209 1036.03 343.648C1084.78 310.584 1147 323.842 1180.01 372.569C1193.34 392.241 1200.65 426.794 1198.76 451.67C1198.22 458.792 1188.13 461.831 1180.92 459.853C1179.83 459.546 1178.75 459.214 1177.66 458.854C1163.62 471.608 1152.64 438.242 1149.59 428.802C1133.99 380.401 1085.06 365.783 1043.62 393.48C1037.11 397.826 1028.83 404.009 1021.75 407.69C996.17 362.52 977.653 339.397 922.483 366.461C918.557 368.389 907.933 375.086 904.634 374.534Z" fill="#69903D"/>
<path d="M904.634 374.534C903.229 377.749 903.06 379.627 899.55 380.586C870.484 388.522 893.112 352.853 898.416 345.943C913.584 325.854 936.186 312.695 961.149 309.417C982.018 306.792 1003.07 312.677 1019.55 325.743C1026.66 331.325 1031.06 336.209 1036.03 343.648C1084.78 310.584 1147 323.842 1180.01 372.569C1193.34 392.241 1200.65 426.794 1198.76 451.67C1198.22 458.792 1188.13 461.831 1180.92 459.853C1179.83 459.546 1178.75 459.214 1177.66 458.854L1177.85 457.737C1181.6 434.752 1175.82 400.364 1162.09 381.512C1149.9 364.772 1128.65 348.446 1107.61 345.837C1075.22 341.821 1056.37 353.202 1031.83 371.258C1022.28 361.463 1019.25 349.168 1006.69 340.727C968.027 314.751 924.081 333.997 904.634 374.534Z" fill="#344C1C"/>
<path d="M583.042 285.359C590.2 284.321 604.986 285.021 612.049 286.539C625.99 289.533 673.9 302.555 669.879 322.617C662.724 333.84 632.757 312.605 622.071 309.712C560.914 293.152 504.658 325.791 484.577 385.014C479.887 400.966 477.132 415.771 478.458 432.541C479.134 441.087 480.834 450.628 480.587 459.078L480.544 460.238C463.713 479.178 459.868 454.726 458.72 441.444C455.142 400.049 464.593 363.114 491.984 331.177C514.847 304.167 547.722 287.625 583.042 285.359Z" fill="#344C1C"/>
<path d="M1352.29 419.818C1419.31 416.032 1477.32 485.955 1472.59 550.024C1470.87 573.35 1463.55 588.85 1450.38 607.483C1429.5 609.986 1435.74 594.069 1442.56 582.372C1454.44 561.664 1455.07 542.563 1450.18 519.793C1440.03 472.503 1388.48 428.659 1338.75 442.128C1333.6 443.524 1314.32 449.77 1310.84 446.513C1288.44 425.549 1341.51 420.413 1352.29 419.818Z" fill="#344C1C"/>
<path d="M644.586 578.62C647.144 579.351 648.757 580.176 650.229 582.486C652.255 585.667 653.261 589.925 654.457 593.493C658.026 604.137 661.77 613.62 669.311 622.161C676.313 630.091 685.22 635.834 695.457 638.584C732.367 648.502 758.582 615.181 769.787 617.482C771.108 617.753 772.319 618.377 773.108 619.47C775.729 623.106 774.219 628.708 773.674 632.859C771.643 634.934 769.092 637.147 766.921 639.133C758.046 645.833 748.23 651.185 737.791 655.013C693.783 670.716 652.004 650.078 637.828 605.835C634.442 595.269 630.937 582.481 644.586 578.62Z" fill="#344C1C"/>
</g>
<defs>
<clipPath id="clip0_10_273">
<rect width="1658" height="1732" fill="white"/>
</clipPath>
</defs>
</svg>
