<svg width="1441" height="251" viewBox="0 0 1441 251" fill="none" xmlns="http://www.w3.org/2000/svg">
<path d="M16.9201 12.68C45.5259 10.04 76.8115 13.6399 105.171 11.97C165.27 8.42999 203.112 68.2297 167.394 119.69C197.236 150.74 195.533 195.66 166.271 226.44C159.84 231.63 155.853 234.719 148.338 238.249C140.836 241.749 132.829 244.009 124.622 244.949C94.8868 248.509 54.9124 243.7 24.2023 245.57C18.4101 245.92 5.27823 242.07 3.48452 235.48C2.07914 230.32 0.533517 224.39 0.414205 218.89C-0.135738 158.98 -0.126487 98.9699 0.37319 39.0501C0.493428 24.7001 2.88772 17.51 16.9201 12.68ZM118.717 70.5901C102.323 64.3901 74.7661 66.9093 56.9816 67.0393L57.0763 190.89C75.0734 190.93 95.3056 191.859 112.997 190.419C133.078 188.769 137.339 164.929 124.86 150.619L123.841 149.99C110.604 142.01 101.954 147.84 88.6632 143.51C77.1805 139.76 76.1848 117.54 81.3263 108.69C90.1225 94.0897 112.89 106.449 122.352 94.1594C126.545 88.7094 125.754 73.2603 118.717 70.5901Z" fill="#AB7622"/>
<path d="M286.642 71.4904C335.013 67.0604 377.828 103.101 382.47 152.151C387.111 201.21 351.837 244.85 303.519 249.84C254.807 254.88 211.362 218.73 206.683 169.28C202.003 119.82 237.876 75.9505 286.642 71.4904ZM326.807 155.96C324.418 138.07 308.305 125.441 290.638 127.611C278.99 129.051 269.003 136.741 264.503 147.731C260.004 158.73 261.687 171.33 268.908 180.71C276.129 190.1 287.77 194.81 299.374 193.05C316.975 190.38 329.196 173.85 326.807 155.96Z" fill="#AB7622"/>
<path d="M480.391 71.6398C528.993 66.2699 572.637 102 577.743 151.34C582.848 200.67 547.471 244.82 498.831 249.82C450.446 254.789 407.209 219.12 402.131 170.05C397.051 120.97 432.043 76.9698 480.391 71.6398ZM522.222 155.91C519.736 137.8 503.245 125.17 485.401 127.71C467.583 130.25 455.159 146.95 457.641 165.029C460.122 183.109 476.573 195.739 494.395 193.239C512.244 190.729 524.707 174.01 522.222 155.91Z" fill="#AB7622"/>
<path d="M1161.27 71.3401C1209.83 68.3001 1251.65 105.72 1254.73 154.98C1257.81 204.24 1221 246.73 1172.46 249.94C1123.8 253.16 1081.8 215.71 1078.71 166.33C1075.61 116.95 1112.6 74.4001 1161.27 71.3401ZM1198.66 155.89C1196.15 137.97 1179.9 125.45 1162.21 127.8C1150.6 129.34 1140.69 137.1 1136.28 148.11C1131.87 159.12 1133.63 171.69 1140.9 181.02C1148.16 190.34 1159.8 194.99 1171.38 193.18C1189.01 190.43 1201.18 173.8 1198.66 155.89Z" fill="#8AAB42"/>
<path d="M656.079 189.9C656.153 202.05 657.846 227.41 653.2 236.75C645.341 252.55 599.933 250.7 599.454 228.21C599.245 218.4 599.494 208.17 599.518 198.46L599.562 133.08L599.517 60.38C599.506 46.85 599.296 33.4201 599.95 19.9801C600.364 3.4801 613.146 0 627.019 0C643.015 0 654.462 1.99005 655.733 20.8C656.58 33.34 656.294 45.61 656.289 58.13L656.141 128.26C670.419 114.69 684.867 100.82 699.503 87.67C703.909 83.71 712.779 77.4101 718.889 78.3601C728.222 79.8101 737.772 89.92 743.508 97.12C748.752 107.95 747.815 113.26 739.872 122.11L701.297 158.72C714.829 170.5 742.464 191.08 752.201 204.07C754.783 207.52 756.774 211.64 757.168 216C757.74 222.26 755.069 228.02 751.107 232.65C745.381 239.34 737.694 247.01 728.508 247.41C713.311 248.09 669.453 202.48 656.079 189.9Z" fill="#AB7622"/>
<path d="M847.367 73.64C859.361 72.59 871.454 73.9301 882.946 77.5801C898.833 82.6001 927.296 97.11 917.923 116.63C903.12 147.45 891.974 147.4 865.945 131.71C852.354 123.52 831.559 134.36 825.626 150.37C822.915 157.78 823.329 166 826.779 173.09C838.802 198.39 860.367 195.38 880.107 182.04C896.951 170.66 912.119 192.44 918.367 206.33C919.382 213.72 919.707 217.06 915.322 223.61C906.412 236.91 884.621 244.91 869.503 247.29C844.676 250.95 819.426 244.5 799.272 229.34C749.442 191.47 756.459 113.12 811.591 84.27C824.187 77.68 833.392 75.45 847.367 73.64Z" fill="#8AAB42"/>
<path d="M1295.75 0.619947C1327.24 -1.33005 1333.95 3.18004 1333.18 35.72C1332.97 44.41 1333.18 54.25 1333.17 63.02L1333.13 149.24C1333.13 159.97 1332.73 172.8 1333.67 183.42C1335.42 196.15 1351.18 190.32 1359.02 197.56C1366.95 204.85 1365.63 215.25 1364.7 224.96C1363.28 239.76 1358.47 245.19 1343.97 246.18C1276.75 248.11 1276.18 221.88 1276.49 162.15C1276.75 114.96 1275.67 66.79 1276.95 19.53C1277.3 6.87998 1284.42 2.73995 1295.75 0.619947Z" fill="#8AAB42"/>
<path d="M1015.13 78.6313C1049.92 75.9613 1070.51 89.1113 1049.69 129.811C1042.02 144.821 1015.06 131.141 1004.59 133.061C965.594 140.211 997.989 218.961 979.451 243.601C974.523 249.621 969.023 249.791 961.878 250.601C955.491 250.651 948.188 250.981 941.96 249.501C937.791 248.511 931.799 245.791 930.024 241.491C925.915 231.551 925.757 96.1414 929.955 88.7214C932.173 84.8014 937.633 82.1714 941.703 80.9814C951.037 78.2614 967.456 78.3614 975.932 83.7314C981.067 86.9714 982.25 92.3113 983.393 97.9513C994.224 86.6013 999.763 81.8413 1015.13 78.6313Z" fill="#8AAB42"/>
<path d="M1397.7 77.6399C1407.18 76.6799 1418.81 75.75 1427.77 79.58C1430.83 80.88 1434.31 83.01 1435.51 86.32C1437.24 91.07 1438.16 96.54 1438.49 101.59C1439.51 117.77 1440.14 227.8 1436.2 236.59C1433.8 241.96 1428.53 244.08 1423.4 245.87C1413.77 246.48 1402.53 248.07 1393.34 244.33C1389.99 242.98 1386.3 240.64 1384.92 237.16C1383.12 232.64 1382.53 227.11 1382.21 222.25C1381.23 206.96 1380.56 95.08 1383.72 88.06C1386.58 81.72 1391.57 79.8699 1397.7 77.6399Z" fill="#8AAB42"/>
<path d="M1403.99 0.560017C1412.64 0.300017 1420.68 -0.439949 1428.64 4.22005C1441.84 11.9401 1443.23 33.88 1435.59 45.96C1431.35 52.66 1427.08 53.59 1419.72 55.04C1403.49 55.69 1383.39 56.98 1381.03 35.8C1378.78 15.76 1383.57 2.81002 1403.99 0.560017Z" fill="#8AAB42"/>
</svg>
